<svg xmlns="http://www.w3.org/2000/svg" width="25" height="24" viewBox="0 0 25 24">
    <g fill="none" fill-rule="evenodd">
        <g fill="#282949">
            <g>
                <g>
                    <path d="M12.5 4.708c.644 0 1.167.544 1.167 1.216v4.909h4.91c.67 0 1.215.523 1.215 1.167s-.544 1.167-1.216 1.167l-4.91-.001v4.91c0 .672-.522 1.216-1.166 1.216-.644 0-1.167-.544-1.167-1.216v-4.91h-4.91c-.67 0-1.215-.522-1.215-1.166 0-.644.544-1.167 1.216-1.167h4.91v-4.91c0-.67.522-1.215 1.166-1.215z" transform="translate(-665 -383) translate(651 371) translate(14 12) rotate(45 12.5 12)"/>
                </g>
            </g>
        </g>
    </g>
</svg>
